<svg width="920" height="432" viewBox="0 0 920 432" fill="none" xmlns="http://www.w3.org/2000/svg">
<g clip-path="url(#clip0_1022_119)">
<rect width="920" height="432" rx="16" fill="#DEDEF8"/>
<circle cx="844.5" cy="5.5" r="216.5" fill="#FFA8A4"/>
<circle cx="559.5" cy="431.5" r="140.5" fill="#D1D1FA"/>
<circle cx="66.4839" cy="32.5161" r="2.51613" transform="rotate(90 66.4839 32.5161)" fill="#E2E2FE"/>
<circle cx="66.4839" cy="43.8388" r="2.51613" transform="rotate(90 66.4839 43.8388)" fill="#E2E2FE"/>
<circle cx="66.4839" cy="55.1613" r="2.51613" transform="rotate(90 66.4839 55.1613)" fill="#E2E2FE"/>
<circle cx="55.1611" cy="32.5161" r="2.51613" transform="rotate(90 55.1611 32.5161)" fill="#E2E2FE"/>
<circle cx="55.1611" cy="43.8388" r="2.51613" transform="rotate(90 55.1611 43.8388)" fill="#E2E2FE"/>
<circle cx="55.1611" cy="55.1613" r="2.51613" transform="rotate(90 55.1611 55.1613)" fill="#E2E2FE"/>
<circle cx="43.8389" cy="32.5161" r="2.51613" transform="rotate(90 43.8389 32.5161)" fill="#E2E2FE"/>
<circle cx="43.8389" cy="43.8388" r="2.51613" transform="rotate(90 43.8389 43.8388)" fill="#E2E2FE"/>
<circle cx="43.8389" cy="55.1613" r="2.51613" transform="rotate(90 43.8389 55.1613)" fill="#E2E2FE"/>
<circle cx="32.5161" cy="32.5161" r="2.51613" transform="rotate(90 32.5161 32.5161)" fill="#E2E2FE"/>
<circle cx="32.5161" cy="43.8388" r="2.51613" transform="rotate(90 32.5161 43.8388)" fill="#E2E2FE"/>
<circle cx="32.5161" cy="55.1613" r="2.51613" transform="rotate(90 32.5161 55.1613)" fill="#E2E2FE"/>
</g>
<defs>
<clipPath id="clip0_1022_119">
<rect width="920" height="432" rx="16" fill="white"/>
</clipPath>
</defs>
</svg>
