<svg width="121" height="121" viewBox="0 0 121 121" fill="none" xmlns="http://www.w3.org/2000/svg">
<g clip-path="url(#clip0_1_173)">
<path d="M102.927 102.926C126.359 79.4949 126.359 41.5051 102.927 18.0736C79.4956 -5.35786 41.5057 -5.35786 18.0743 18.0736C-5.35718 41.5051 -5.35718 79.4949 18.0743 102.926C41.5057 126.358 79.4956 126.358 102.927 102.926Z" fill="#C9C5D8"/>
<path d="M59.48 100.756C75.8851 100.756 89.184 91.5993 89.184 80.3039C89.184 69.0086 75.8851 59.8519 59.48 59.8519C43.0749 59.8519 29.776 69.0086 29.776 80.3039C29.776 91.5993 43.0749 100.756 59.48 100.756Z" fill="#6C5DD4"/>
<path d="M46.836 61.796C41.508 65.528 38.176 70.84 38.176 76.74C38.176 88.036 50.392 97.192 65.464 97.192C72.776 97.192 79.416 95.036 84.316 91.524C79.008 97.084 69.868 100.756 59.48 100.756C43.08 100.756 29.78 91.6 29.78 80.304C29.78 72.124 36.756 65.064 46.836 61.796Z" fill="#6C5DD4"/>
<path d="M84.564 89.428L90.712 88.628C91.21 88.5621 91.6705 88.3278 92.0169 87.9639C92.3632 87.6001 92.5747 87.1287 92.616 86.628L93.344 77.7C93.3573 77.5391 93.337 77.3772 93.2846 77.2245C93.2321 77.0718 93.1485 76.9316 93.0391 76.8128C92.9298 76.694 92.7969 76.5992 92.6491 76.5344C92.5012 76.4695 92.3415 76.436 92.18 76.436H84.58L84.564 89.428ZM74.716 67.404C72.968 67.404 70.66 65.556 70.64 63.628C70.64 59.228 72.392 55.988 75.004 54.2C75.3052 53.9911 75.658 53.8689 76.0239 53.8469C76.3898 53.8249 76.7547 53.9038 77.0788 54.0751C77.4029 54.2465 77.6736 54.5036 77.8615 54.8183C78.0493 55.1331 78.1471 55.4935 78.144 55.86V65.2C78.1445 65.4896 78.0879 65.7764 77.9773 66.0441C77.8667 66.3117 77.7044 66.5549 77.4996 66.7597C77.2949 66.9644 77.0517 67.1267 76.7841 67.2373C76.5164 67.3479 76.2296 67.4045 75.94 67.404H74.716Z" fill="#6C5DD4"/>
<path d="M75.02 54.1639C73.648 55.9959 72.812 58.4799 72.812 61.5319C72.812 63.4599 75.14 65.3079 76.888 65.3079H78.1C78.0989 65.8642 77.8772 66.3973 77.4835 66.7903C77.0898 67.1832 76.5563 67.4039 76 67.4039H74.672C72.924 67.4039 70.612 65.5559 70.596 63.6279C70.608 59.1799 72.38 55.9439 75.02 54.1639Z" fill="#6C5DD4"/>
<path d="M68.1 106.212H74.1C74.4691 106.212 74.8265 106.082 75.1096 105.845C75.3926 105.608 75.5832 105.279 75.648 104.916L77.912 92.3679H66.5V104.64C66.5 104.849 66.5415 105.055 66.6223 105.248C66.703 105.441 66.8213 105.615 66.9703 105.762C67.1192 105.908 67.2959 106.023 67.4898 106.1C67.6838 106.178 67.8912 106.216 68.1 106.212ZM48.04 98.5639V104.5C48.0405 104.726 47.9964 104.95 47.9102 105.159C47.8239 105.368 47.6972 105.557 47.5374 105.717C47.3776 105.877 47.1878 106.004 46.9788 106.09C46.7699 106.176 46.546 106.22 46.32 106.22H40.628C40.2129 106.219 39.812 106.069 39.499 105.796C39.186 105.523 38.9818 105.147 38.924 104.736L37.44 93.9999H43.468C44.6792 93.9999 45.8409 94.4805 46.6981 95.3362C47.5553 96.1919 48.0379 97.3527 48.04 98.5639Z" fill="#6C5DD4"/>
<path d="M32.9 79.396C31.592 81.34 28.968 81.824 26.82 81.204C25.6954 80.8734 24.6754 80.2577 23.8589 79.4167C23.0424 78.5757 22.4572 77.5379 22.16 76.404C21.552 74.096 22.284 71.32 24.616 70.284C26.692 69.364 29.416 70.592 29.524 73.004C29.572 73.5878 29.4358 74.172 29.1344 74.6743C28.833 75.1766 28.3817 75.5717 27.844 75.804C27.3101 76.0258 26.7194 76.0717 26.1577 75.935C25.596 75.7983 25.0924 75.4863 24.72 75.044C24.096 74.276 25.216 73.204 25.848 73.984C25.9619 74.1384 26.1119 74.2625 26.2848 74.3456C26.4578 74.4287 26.6484 74.4683 26.8401 74.4608C27.0318 74.4533 27.2188 74.399 27.3847 74.3026C27.5506 74.2063 27.6905 74.0708 27.792 73.908C27.8938 73.7135 27.9546 73.5002 27.9704 73.2812C27.9862 73.0623 27.9568 72.8424 27.8841 72.6353C27.8113 72.4282 27.6966 72.2383 27.5473 72.0774C27.398 71.9165 27.2171 71.788 27.016 71.7C24.82 70.68 23.36 73.336 23.512 75.164C23.596 76.0895 23.9238 76.9761 24.462 77.7336C25.0003 78.491 25.7297 79.0923 26.576 79.476C28.144 80.168 30.52 80.168 31.58 78.592C32.136 77.768 33.464 78.568 32.904 79.392L32.9 79.396Z" fill="#6C5DD4"/>
<path d="M80.68 76.4239C81.4002 76.4239 81.984 75.5321 81.984 74.4319C81.984 73.3318 81.4002 72.4399 80.68 72.4399C79.9598 72.4399 79.376 73.3318 79.376 74.4319C79.376 75.5321 79.9598 76.4239 80.68 76.4239Z" fill="#6E39B7"/>
<path d="M54.5 63.456C57.9783 62.856 61.5337 62.856 65.012 63.456C65.2806 63.5046 65.5576 63.4489 65.7866 63.3002C66.0155 63.1516 66.1791 62.9212 66.244 62.656C66.2667 62.519 66.2617 62.3787 66.2292 62.2436C66.1968 62.1085 66.1377 61.9813 66.0553 61.8694C65.9729 61.7576 65.8689 61.6634 65.7495 61.5924C65.6301 61.5214 65.4976 61.475 65.36 61.456C61.654 60.8174 57.866 60.8174 54.16 61.456C54.0228 61.476 53.891 61.5231 53.7721 61.5944C53.6532 61.6657 53.5497 61.7599 53.4675 61.8715C53.3853 61.9831 53.326 62.1099 53.2931 62.2446C53.2603 62.3792 53.2544 62.5191 53.276 62.656C53.3417 62.919 53.5043 63.1476 53.7312 63.2959C53.9582 63.4442 54.2327 63.5014 54.5 63.456Z" fill="#6C5DD4"/>
<path d="M58.276 48.6399C62.4734 48.6399 65.876 45.2409 65.876 41.0479C65.876 36.855 62.4734 33.4559 58.276 33.4559C54.0786 33.4559 50.676 36.855 50.676 41.0479C50.676 45.2409 54.0786 48.6399 58.276 48.6399Z" fill="#E5A200"/>
<path d="M39.98 22.852C43.94 20.94 46.268 19.816 48.008 18.984C47.008 19.184 46.112 19.384 45.608 19.476C44.8457 19.6219 44.0576 19.5491 43.3349 19.266C42.6121 18.9828 41.9843 18.5009 41.524 17.876C41.4229 17.749 41.3566 17.5978 41.3319 17.4373C41.3072 17.2769 41.3248 17.1128 41.383 16.9612C41.4412 16.8097 41.5379 16.6759 41.6637 16.5733C41.7895 16.4706 41.9399 16.4026 42.1 16.376C50.82 14.856 51 14.824 55.6 14.068C56.8 13.872 58.036 13.668 59.2 14.032C59.8355 14.2385 60.4231 14.5703 60.928 15.008L60.796 15.164L60.916 15.216L58.228 21.368L58.208 21.888C56.32 21.888 54.484 22.744 52.912 23.824C51.62 24.708 48.352 28.624 47.284 29.824C46.6689 30.5059 45.873 30.9993 44.9887 31.2471C44.1044 31.4949 43.1679 31.4869 42.288 31.224C42.1058 31.1739 41.9396 31.0778 41.8053 30.9449C41.6711 30.812 41.5733 30.6468 41.5215 30.4651C41.4696 30.2834 41.4654 30.0915 41.5093 29.9077C41.5532 29.724 41.6437 29.5546 41.772 29.416C43.728 27.304 45.16 25.768 46.28 24.556L44.96 25.248C44.1381 25.6573 43.2172 25.8261 42.3036 25.7348C41.3899 25.6435 40.5207 25.2959 39.796 24.732C39.6439 24.6183 39.5236 24.4672 39.4469 24.2935C39.3702 24.1197 39.3397 23.9291 39.3582 23.7401C39.3767 23.5511 39.4436 23.37 39.5525 23.2144C39.6615 23.0589 39.8087 22.934 39.98 22.852Z" fill="#846C6C"/>
<path d="M49.504 31.652L48.9 36.68L49.944 31.648C49.7978 31.6296 49.6498 31.6309 49.504 31.652Z" fill="#FFB288"/>
<path d="M76.236 2.58801L75.588 4.10001L73.3 9.39601C68.444 10.824 61.368 12.8 60.032 13.44C57.804 14.508 55.096 14.924 53.572 16.864C53.0918 17.5075 52.7352 18.2345 52.52 19.008L50.756 24.608C50.3367 25.9244 50.0408 27.2769 49.872 28.648L49.492 31.668C49.6184 31.656 49.7456 31.656 49.872 31.668C49.6 33.032 49.272 34.668 48.868 36.704C48.8307 36.8896 48.842 37.0817 48.9008 37.2617C48.9595 37.4417 49.0637 37.6035 49.2033 37.7314C49.3429 37.8593 49.5131 37.9491 49.6975 37.9919C49.882 38.0348 50.0743 38.0293 50.256 37.976C51.1428 37.7404 51.9444 37.2578 52.5675 36.5844C53.1907 35.9109 53.6098 35.0744 53.776 34.172C54.064 32.6 54.792 27.544 55.428 26.116C56.3 24.156 57.604 22.272 59.544 21.36C61.484 20.448 64.132 20.82 65.292 22.624C66.092 23.884 66.04 25.528 65.636 26.972C65.232 28.416 64.52 29.772 64.104 31.2C63.7518 32.4285 63.6164 33.709 63.704 34.984C63.768 35.948 63.988 36.964 64.764 37.592C64.9569 37.7495 65.1814 37.8635 65.4223 37.9263C65.6632 37.9891 65.9148 37.9992 66.16 37.956C66.96 37.8 67.192 37.156 67.416 36.564L70.416 28.496C70.5733 27.9522 70.8462 27.4487 71.216 27.02C71.756 26.484 72.544 26.308 73.268 26.076C76.1656 25.0824 78.5526 22.983 79.908 20.236L86.468 9.54001L87.932 7.14001C84.2038 5.21671 80.2835 3.69098 76.236 2.58801Z" fill="#9F7E7D"/>
<path d="M54.796 113.564C59.7909 113.564 63.84 112.806 63.84 111.872C63.84 110.937 59.7909 110.18 54.796 110.18C49.8011 110.18 45.752 110.937 45.752 111.872C45.752 112.806 49.8011 113.564 54.796 113.564Z" fill="#6C5DD4"/>
<path d="M81.412 112.1C86.1837 112.1 90.052 111.376 90.052 110.484C90.052 109.591 86.1837 108.868 81.412 108.868C76.6403 108.868 72.772 109.591 72.772 110.484C72.772 111.376 76.6403 112.1 81.412 112.1Z" fill="#6C5DD4"/>
<path d="M98.796 105.596C97.032 104.396 80.056 103.48 59.372 103.48C42.488 103.48 28.076 104.1 22.388 104.976C21.636 104.872 20.816 104.788 19.948 104.72C21.364 106.016 22.844 107.252 24.38 108.412C25.98 108.072 27.1 107.644 27.444 107.172C34.644 107.748 46.264 108.124 59.372 108.124C69.66 108.124 79.028 107.892 86.064 107.516C86.404 108.368 90.4 109.06 95.56 109.192C97.1093 108.075 98.6 106.889 100.032 105.636L98.796 105.596ZM31.24 110.728C31.24 109.964 28.756 109.312 25.24 109.036C26.5733 110.012 27.9547 110.935 29.384 111.804C30.544 111.5 31.24 111.128 31.24 110.728Z" fill="#6C5DD4"/>
<path d="M33.336 96.94V95.532C33.336 94.828 30.304 94.256 26.56 94.256C25.4419 94.2541 24.3244 94.3102 23.212 94.424C23.1559 93.1622 22.619 91.9698 21.7116 91.0913C20.8041 90.2129 19.5949 89.7151 18.332 89.7H16.404C13.956 89.744 11.604 91.256 10.328 93.408C15.0284 100.561 21.1987 106.63 28.428 111.212C29.628 110.952 30.352 110.616 30.396 110.244V108.876C31.3272 108.739 32.2258 108.434 33.048 107.976C33.14 107.922 33.2203 107.85 33.284 107.764C33.3726 107.672 33.424 107.551 33.428 107.424C33.425 107.327 33.3929 107.234 33.336 107.156V105.916C33.3323 105.855 33.3115 105.797 33.276 105.748C33.3073 105.705 33.3279 105.656 33.336 105.604V103.892C33.336 103.62 32.896 103.372 32.136 103.168V102.1C32.86 101.9 33.296 101.66 33.336 101.404V99.8719C33.86 99.6959 34.168 99.472 34.192 99.276V97.5599C34.192 97.3359 33.88 97.124 33.336 96.94ZM104.228 96.412H102.38C101.71 96.4331 101.051 96.5867 100.44 96.864V95.5359C100.44 95.3039 100.108 95.088 99.532 94.9V93.4919C99.5303 93.431 99.5093 93.3722 99.472 93.324C99.5037 93.2817 99.5244 93.2322 99.532 93.1799V91.4599C99.532 90.7559 96.5 90.184 92.76 90.184C89.02 90.184 85.984 90.7559 85.988 91.4719V93.156C85.995 93.2096 86.0157 93.2606 86.048 93.3039C86.0093 93.3563 85.987 93.4189 85.984 93.484V95.168C86.004 95.392 86.332 95.6 86.884 95.784V97.196C86.8925 97.2499 86.9145 97.3008 86.948 97.344C86.9067 97.3952 86.8829 97.4582 86.88 97.524V99.02C86.336 99.208 86.02 99.42 86.024 99.652V101.064C85.504 101.248 85.224 101.464 85.224 101.68V103.38C85.244 103.588 85.536 103.78 86.024 103.96V105.556C86.03 105.609 86.0508 105.659 86.084 105.7C86.0436 105.751 86.0212 105.815 86.02 105.88V106.532C84.4663 106.338 82.9017 106.245 81.336 106.252C76.828 106.252 73.176 106.94 73.18 107.804V109.852C73.26 110.688 76.876 111.364 81.336 111.364C85.796 111.364 89.4 110.692 89.496 109.856V108.676C90.59 108.785 91.6887 108.838 92.788 108.836C93.929 108.84 95.0694 108.781 96.204 108.66C97.356 107.809 98.4747 106.915 99.56 105.976V105.828L99.64 105.912C102.59 103.384 105.289 100.578 107.7 97.532C106.67 96.8416 105.467 96.4536 104.228 96.412ZM62.584 108.384V106.692C62.5794 106.633 62.5632 106.577 62.5364 106.524C62.5096 106.472 62.4728 106.426 62.428 106.388C63.084 106.172 63.472 105.924 63.504 105.66V103.592C63.504 102.744 59.848 102.056 55.34 102.056C50.832 102.056 47.18 102.744 47.184 103.608V105.656C47.2015 105.763 47.2586 105.86 47.344 105.928C46.656 106.156 46.26 106.42 46.26 106.704V108.752C46.288 109.016 46.66 109.26 47.288 109.476V111.196C47.368 112.032 50.984 112.708 55.44 112.708C59.896 112.708 63.504 112.036 63.6 111.2V109.136C63.616 108.864 63.24 108.608 62.584 108.384Z" fill="#E5A200"/>
<path d="M29.808 108.748L29.864 108.72C30.204 108.552 30.396 108.368 30.396 108.176C30.396 107.776 29.596 107.424 28.308 107.152C29.7016 107.117 31.0861 106.915 32.432 106.552C32.5681 106.506 32.7017 106.452 32.832 106.392C33.144 106.244 33.32 106.084 33.32 105.916C33.3163 105.855 33.2955 105.797 33.26 105.748C33.096 105.976 32.612 106.188 31.896 106.36C31.624 106.428 31.312 106.488 30.976 106.544C29.6049 106.794 28.2136 106.915 26.82 106.908L26.384 106.856C25.324 106.736 24.112 106.66 22.812 106.644H22.64C22.448 106.616 22.268 106.58 22.104 106.548L21.992 106.528L22.552 106.992H22.9C23.9814 107.006 25.0614 107.074 26.136 107.196C27.952 107.412 29.148 107.772 29.148 108.18C29.148 108.436 28.692 108.668 27.916 108.864C27.1258 109.044 26.3237 109.167 25.516 109.232L25.96 109.552C26.729 109.481 27.494 109.372 28.252 109.224C28.7868 109.124 29.3088 108.964 29.808 108.748ZM32.144 103.168V103.432C32.1316 103.5 32.0996 103.562 32.052 103.612C32.2 103.7 32.28 103.796 32.28 103.892C32.28 104.26 31.08 104.584 29.356 104.756C28.528 104.836 27.576 104.88 26.556 104.88C25.536 104.88 24.592 104.836 23.756 104.756C23.164 104.696 22.632 104.62 22.192 104.532C21.52 104.47 20.8522 104.368 20.192 104.228L20.152 104.304C20.8812 104.623 21.656 104.825 22.448 104.904C22.848 104.964 23.296 105.012 23.764 105.052C24.616 105.124 25.56 105.168 26.564 105.168C27.568 105.168 28.504 105.124 29.364 105.052C29.84 105.012 30.28 104.964 30.688 104.904C31.4342 104.822 32.1661 104.64 32.864 104.364C33.176 104.216 33.352 104.056 33.352 103.892C33.336 103.62 32.9 103.372 32.144 103.168ZM24.344 102.976H25.368C26.168 102.976 26.924 102.948 27.632 102.9C28.34 102.852 28.892 102.796 29.436 102.72C30.1487 102.637 30.8493 102.472 31.524 102.228C30.2728 102.463 29.0047 102.597 27.732 102.628H27.364C26.744 102.668 26.072 102.688 25.364 102.688H24.288C22.9099 102.689 21.5378 102.506 20.208 102.144V102.544C20.9603 102.702 21.7218 102.813 22.488 102.876C23.072 102.92 23.7 102.96 24.344 102.976ZM21.92 100.616C22.32 100.684 22.748 100.748 23.216 100.796C24.3269 100.912 25.4431 100.968 26.56 100.964C27.288 100.964 27.984 100.94 28.64 100.904C29.124 100.872 29.584 100.832 30.012 100.784C30.9827 100.716 31.9382 100.505 32.848 100.16C32.9959 100.1 33.1315 100.013 33.248 99.904C32.4372 100.132 31.607 100.285 30.768 100.36C30.0935 100.482 29.4123 100.563 28.728 100.604C28.064 100.652 27.336 100.68 26.572 100.68C25.4787 100.684 24.3862 100.624 23.3 100.5C22.12 100.356 21.264 100.14 20.964 99.888C20.828 100.02 20.688 100.148 20.54 100.268C20.9893 100.423 21.451 100.539 21.92 100.616ZM33.336 96.94V97.248C33.3094 97.3653 33.2375 97.4674 33.136 97.532V97.56C33.136 98.004 31.452 98.36 29.136 98.508C28.592 98.536 28.016 98.552 27.42 98.552C26.62 98.552 25.852 98.524 25.156 98.472H24.796C23.9509 98.4333 23.1084 98.3505 22.272 98.224L22.176 98.384C22.5 98.46 22.872 98.528 23.28 98.588C23.756 98.656 24.28 98.716 24.844 98.756C25.644 98.82 26.508 98.852 27.42 98.852C27.996 98.852 28.552 98.852 29.084 98.816C29.616 98.78 30.196 98.744 30.684 98.692C31.7112 98.6262 32.7232 98.4106 33.688 98.052C34 97.904 34.176 97.744 34.176 97.576C34.176 97.408 33.88 97.124 33.336 96.94ZM26.56 96.812C27.6286 96.8149 28.6967 96.7628 29.76 96.656C30.228 96.608 30.664 96.552 31.06 96.484C31.6724 96.4015 32.2719 96.2415 32.844 96.008C33.156 95.86 33.332 95.7 33.332 95.532C33.332 94.828 30.3 94.256 26.556 94.256C25.4378 94.2541 24.3204 94.3102 23.208 94.424V94.728C24.3153 94.6001 25.4293 94.5386 26.544 94.544C29.704 94.544 32.264 94.988 32.264 95.532C32.264 95.88 31.244 96.184 29.7 96.36C28.6519 96.4735 27.5982 96.5283 26.544 96.524C25.708 96.524 24.912 96.492 24.196 96.436C23.776 96.404 23.396 96.364 23.02 96.312C22.996 96.412 22.972 96.508 22.944 96.6C23.344 96.648 23.792 96.688 24.252 96.72C24.98 96.784 25.756 96.812 26.56 96.812ZM99.532 106.068L99.236 106.316C99.352 106.256 99.4531 106.172 99.532 106.068ZM99.576 105.876L99.492 105.784C99.232 106.084 98.412 106.352 97.236 106.544C95.7739 106.809 94.2896 106.93 92.804 106.908C91.3158 106.929 89.829 106.807 88.364 106.544C87.164 106.344 86.324 106.064 86.1 105.744C86.0596 105.795 86.0372 105.859 86.036 105.924C86.068 106.624 89.084 107.192 92.804 107.192C95.656 107.192 98.092 106.856 99.092 106.392C99.1417 106.37 99.1898 106.345 99.236 106.316L99.532 106.068C99.5622 106.023 99.5788 105.97 99.58 105.916C99.58 105.916 99.576 105.888 99.576 105.876ZM95.6 104.756C94.772 104.836 93.82 104.88 92.8 104.88C91.78 104.88 90.836 104.836 90 104.756C89.3368 104.701 88.6789 104.596 88.032 104.44C87.3618 104.361 86.7003 104.221 86.056 104.02C86.248 104.38 87.236 104.696 88.68 104.904C89.08 104.964 89.528 105.012 89.996 105.052C90.848 105.124 91.792 105.168 92.796 105.168C93.8 105.168 94.736 105.124 95.596 105.052C96.068 105.012 96.508 104.964 96.916 104.904C97.4859 104.83 98.0491 104.711 98.6 104.548C98.516 104.408 98.44 104.268 98.368 104.12C97.996 104.392 96.972 104.62 95.6 104.756ZM88.9 102.848C89.468 102.904 90.1 102.944 90.724 102.968C91.124 102.968 91.564 102.992 92.004 102.992C92.748 102.992 93.464 102.968 94.132 102.928C94.8 102.888 95.376 102.828 95.916 102.756C96.5541 102.675 97.1843 102.542 97.8 102.356C97.8019 102.319 97.8019 102.281 97.8 102.244C96.6579 102.457 95.5012 102.582 94.34 102.62H94.116C93.468 102.664 92.76 102.688 92.024 102.688C91.568 102.688 91.128 102.68 90.704 102.664C88.18 102.56 86.304 102.168 86.304 101.7C86.2443 101.668 86.1923 101.624 86.1515 101.57C86.1108 101.516 86.0822 101.454 86.068 101.388V101.1C85.548 101.284 85.268 101.5 85.268 101.716C85.248 102.216 86.732 102.64 88.9 102.848ZM86.036 100.44C86.036 100.436 86.036 100.464 86.036 100.44V100.44ZM86.9 99.272V99.084C86.356 99.272 86.04 99.484 86.044 99.716C86.044 100.092 86.94 100.428 88.328 100.66C88.728 100.724 89.16 100.784 89.628 100.828C90.576 100.924 91.66 100.98 92.828 100.98C94.0562 100.981 95.2835 100.913 96.504 100.776C96.924 100.728 97.392 100.652 97.768 100.576C97.768 100.476 97.8 100.376 97.82 100.276C97.568 100.312 97.3 100.348 97.02 100.376C96.4189 100.483 95.8128 100.559 95.204 100.604C94.48 100.66 93.676 100.696 92.804 100.696C91.7564 100.7 90.7094 100.645 89.668 100.532C88.112 100.356 87.084 100.048 87.084 99.704C87.0867 99.6642 87.099 99.6258 87.12 99.592C87.062 99.5581 87.0123 99.5119 86.9742 99.4565C86.9362 99.4012 86.9109 99.3382 86.9 99.272ZM95.38 98.5C94.836 98.528 94.26 98.544 93.664 98.544C92.756 98.544 91.9 98.508 91.136 98.444C90.4937 98.3942 89.8552 98.3047 89.224 98.176C88.024 97.98 87.18 97.7 86.96 97.376C86.9187 97.4272 86.8949 97.4902 86.892 97.556C86.912 97.956 87.94 98.324 89.524 98.556C90 98.624 90.524 98.684 91.092 98.724C91.892 98.788 92.752 98.82 93.664 98.82C94.24 98.82 94.796 98.82 95.328 98.784C95.86 98.748 96.44 98.712 96.928 98.66C97.524 98.6 98.064 98.52 98.528 98.428C98.6241 98.2887 98.7283 98.1551 98.84 98.028C98.604 98.084 98.348 98.132 98.076 98.176C97.1863 98.3488 96.2853 98.4571 95.38 98.5ZM99.532 94.9V95.208C99.5132 95.3116 99.4542 95.4035 99.368 95.464C99.3717 95.4878 99.3717 95.5121 99.368 95.536C99.368 95.908 98.168 96.232 96.44 96.404C95.616 96.484 94.664 96.528 93.64 96.528C92.616 96.528 91.768 96.488 90.968 96.412H90.812C89.5786 96.3648 88.3528 96.1973 87.152 95.912C87.8991 96.2676 88.7038 96.4871 89.528 96.56C89.928 96.62 90.376 96.668 90.848 96.708C91.7 96.78 92.644 96.824 93.648 96.824C94.652 96.824 95.584 96.78 96.448 96.708C96.92 96.668 97.364 96.616 97.772 96.56C98.5181 96.4773 99.2499 96.2957 99.948 96.02C100.26 95.872 100.436 95.712 100.436 95.544C100.44 95.3 100.1 95.084 99.532 94.9ZM90.592 94.696C91.272 94.74 92 94.764 92.76 94.764C93.888 94.764 94.948 94.712 95.884 94.62C96.368 94.572 96.816 94.516 97.22 94.448C97.8459 94.3636 98.4587 94.201 99.044 93.964C99.356 93.816 99.532 93.656 99.532 93.488C99.5303 93.427 99.5093 93.3682 99.472 93.32C99.248 93.636 98.408 93.916 97.188 94.12C96.788 94.2 96.344 94.272 95.828 94.328C94.809 94.4362 93.7847 94.4882 92.76 94.484C91.96 94.484 91.22 94.456 90.536 94.404C89.7902 94.3601 89.0483 94.2638 88.316 94.116C87.116 93.92 86.276 93.64 86.052 93.316C86.0133 93.3683 85.991 93.4309 85.988 93.496C86.008 93.952 87.288 94.348 89.188 94.572C89.636 94.624 90.1 94.668 90.592 94.696ZM88.648 92.476C89.048 92.532 89.496 92.584 89.968 92.624C90.816 92.696 91.764 92.736 92.768 92.736C93.772 92.736 94.704 92.696 95.568 92.624C96.04 92.584 96.48 92.532 96.888 92.476C97.6338 92.3919 98.3654 92.2104 99.064 91.936C99.376 91.788 99.552 91.628 99.552 91.46C99.552 90.756 96.52 90.184 92.78 90.184C89.04 90.184 86.004 90.756 86.008 91.472C86.008 91.88 87.048 92.244 88.648 92.476ZM92.76 90.476C95.916 90.476 98.48 90.916 98.48 91.464C98.48 91.836 97.28 92.16 95.552 92.328C94.724 92.412 93.772 92.456 92.752 92.456C91.732 92.456 90.784 92.412 89.952 92.328C88.204 92.16 87.024 91.836 87.024 91.464C87.04 90.9 89.6 90.472 92.76 90.472V90.476ZM19.628 102.652C19.7353 102.602 19.8383 102.543 19.936 102.476C20.0638 102.4 20.1603 102.281 20.208 102.14C20.21 102.12 20.21 102.1 20.208 102.08C20.208 101.896 20.036 101.72 19.72 101.556C19.748 101.526 19.7788 101.5 19.812 101.476C19.8066 101.451 19.8066 101.425 19.812 101.4V100.98C19.5435 101.045 19.2832 101.14 19.036 101.264C18.8069 101.378 18.5719 101.479 18.332 101.568C18.4355 101.607 18.537 101.651 18.636 101.7C18.86 101.82 18.98 101.944 18.98 102.072V102.108C18.96 102.224 18.844 102.34 18.64 102.448C18.4077 102.559 18.1652 102.647 17.916 102.712L18.276 103.076L18.644 102.988C18.9812 102.905 19.3105 102.793 19.628 102.652ZM20.792 96.204C20.816 96.104 20.836 96.004 20.856 95.904L20.892 95.664C20.892 95.564 20.916 95.464 20.924 95.364C20.9339 95.1841 20.9339 95.0038 20.924 94.824C20.9278 94.237 20.8142 93.6552 20.5897 93.1128C20.3653 92.5705 20.0346 92.0785 19.6172 91.6659C19.1997 91.2532 18.7039 90.9283 18.1589 90.7102C17.614 90.4921 17.0309 90.3853 16.444 90.396C16.0763 90.3932 15.7092 90.4267 15.348 90.496L19.72 98.496C19.9128 98.243 20.0879 97.9771 20.244 97.7C20.4905 97.227 20.6747 96.7242 20.792 96.204ZM62.584 108.384V108.76C62.5682 108.829 62.5389 108.894 62.4977 108.952C62.4565 109.01 62.4042 109.059 62.344 109.096V109.136C62.344 109.792 59.256 110.336 55.452 110.336C54.484 110.336 53.56 110.3 52.724 110.24C51.0138 110.205 49.3121 109.988 47.648 109.592C48.668 110.22 51.772 110.68 55.452 110.68C58.888 110.68 61.824 110.28 63.028 109.712C63.4 109.536 63.612 109.344 63.612 109.144C63.616 108.864 63.24 108.608 62.584 108.384ZM51.656 108.14C52.52 108.196 53.452 108.228 54.42 108.228C55.82 108.228 57.132 108.16 58.28 108.044C58.848 107.988 59.372 107.92 59.848 107.84C60.5848 107.736 61.3061 107.543 61.996 107.264C62.372 107.084 62.584 106.892 62.584 106.692C62.5794 106.633 62.5632 106.577 62.5364 106.524C62.5096 106.472 62.4728 106.426 62.428 106.388C62.0618 106.505 61.6892 106.601 61.312 106.676C61.312 107.076 60.084 107.456 58.224 107.672C56.9606 107.807 55.6907 107.873 54.42 107.868C53.412 107.868 52.456 107.832 51.592 107.764C49.192 107.576 47.532 107.16 47.532 106.676C47.532 106.532 47.68 106.392 47.956 106.276C47.7335 106.197 47.5274 106.078 47.348 105.924C46.66 106.152 46.264 106.416 46.264 106.7C46.292 107.24 47.784 107.712 50.028 107.984C50.536 108.048 51.08 108.1 51.656 108.14ZM55.34 105.132C58.776 105.132 61.712 104.732 62.916 104.164C63.292 103.988 63.504 103.796 63.504 103.592C63.504 102.744 59.848 102.056 55.34 102.056C50.832 102.056 47.18 102.744 47.184 103.608C47.188 104.472 50.86 105.132 55.34 105.132ZM55.34 102.4C59.148 102.4 62.232 102.932 62.232 103.6C62.232 104.268 59.148 104.8 55.34 104.8C51.532 104.8 48.448 104.264 48.448 103.6C48.448 102.936 51.536 102.4 55.34 102.4Z" fill="#FDDD7C"/>
<path d="M81.352 106.3C76.844 106.3 73.192 106.988 73.196 107.852C73.2 108.716 76.872 109.376 81.352 109.376C84.416 109.376 87.08 109.056 88.472 108.576C88.6273 108.525 88.7795 108.465 88.928 108.396C89.304 108.22 89.516 108.028 89.516 107.828C89.516 107.304 88.14 106.844 86.036 106.568C84.482 106.378 82.9175 106.289 81.352 106.3ZM88.244 107.84C88.244 108.036 87.964 108.24 87.444 108.392C86.296 108.772 83.992 109.032 81.332 109.032C77.528 109.032 74.44 108.496 74.44 107.832C74.44 107.168 77.528 106.632 81.332 106.632C82.8992 106.618 84.4652 106.725 86.016 106.952C87.392 107.18 88.244 107.492 88.244 107.84Z" fill="#FDDD7C"/>
</g>
<defs>
<clipPath id="clip0_1_173">
<rect width="120" height="120" fill="white" transform="translate(0.5 0.5)"/>
</clipPath>
</defs>
</svg>
