<svg width="24" height="35" viewBox="0 0 24 35" fill="none" xmlns="http://www.w3.org/2000/svg">
<path d="M6.72724 11.6205C6.97014 10.309 7.13527 9.51238 7.22271 9.10434C7.75704 6.33558 7.22271 4.44117 5.83347 4.1886C5.08544 4.05258 4.58027 4.50918 4.24997 5.79154C3.55047 8.45344 1.47149 16.4294 1.47149 16.4294L3.9585 13.0875C4.28277 12.6534 4.69929 12.2966 5.17809 12.0429C5.65687 11.7893 6.18598 11.645 6.72724 11.6205Z" fill="#695143"/>
<path d="M4.94941 15.3705C5.21277 15.0161 5.55573 14.7287 5.9506 14.5312C6.34548 14.3338 6.78122 14.2319 7.22271 14.2338C7.72952 14.2315 8.22712 14.3694 8.66052 14.6321C8.74795 14.6321 10.6035 16.0311 11.7207 16.8665H13.858C15.173 16.865 16.4698 16.5591 17.6468 15.9728C18.17 15.6879 18.6013 15.26 18.8903 14.739C19.0253 14.4329 19.0493 14.0894 18.9583 13.7675C18.9129 13.6392 18.8409 13.5218 18.7472 13.4231C18.6535 13.3244 18.5401 13.2464 18.4143 13.1943C18.1091 13.0584 17.7765 12.9952 17.4428 13.0097H6.75638C6.4149 13.0201 6.08017 13.1077 5.77734 13.2658C5.47449 13.424 5.21137 13.6486 5.00771 13.9229L0.713716 19.7616C0.646946 19.8846 0.59478 20.0151 0.558278 20.1502C0.52056 20.3167 0.51837 20.4893 0.551849 20.6566C0.585328 20.824 0.653725 20.9825 0.752576 21.1217L4.94941 15.3705Z" fill="#695143"/>
<path d="M4.32767 19.9171C4.5475 19.6188 4.82398 19.3669 5.14131 19.1757C5.45861 18.9845 5.81054 18.8577 6.17688 18.8027C6.54325 18.7476 6.91688 18.7654 7.27639 18.8549C7.63588 18.9444 7.97418 19.104 8.27194 19.3245L11.8373 21.9475C12.2807 22.2531 12.6493 22.6549 12.9157 23.123C13.0399 23.3535 13.1252 23.603 13.1682 23.8613C13.5138 23.974 13.868 24.0585 14.2272 24.1139C14.8068 24.2016 15.3994 24.1242 15.937 23.8905C16.2619 23.7202 16.5089 23.4315 16.6268 23.0841C16.6654 22.9549 16.6767 22.8191 16.66 22.6853C16.6433 22.5515 16.5989 22.4226 16.5296 22.3069C16.3599 22.0165 16.1276 21.7676 15.8496 21.5783L8.07764 15.8757L7.94164 15.7882C7.71546 15.6535 7.45685 15.5829 7.19358 15.5842C6.99669 15.5818 6.80136 15.6192 6.61935 15.6944C6.43736 15.7695 6.27246 15.8807 6.13467 16.0214L6.00837 16.1768L0.674879 23.4824C0.553584 23.6845 0.495268 23.9181 0.507381 24.1534C0.519494 24.3888 0.601486 24.6151 0.742884 24.8037L4.32767 19.9171Z" fill="#695143"/>
<path d="M11.1864 11.6205H15.733C15.6385 11.4102 15.5315 11.2058 15.4124 11.0084C14.9172 10.1692 14.2945 9.41207 13.5666 8.76428C13.2568 8.4434 12.8574 8.22349 12.4205 8.13334C11.9837 8.04322 11.5299 8.08704 11.1184 8.25912C10.7855 8.46438 10.5463 8.79184 10.4518 9.17134C10.3574 9.55082 10.4154 9.95221 10.6132 10.2895L11.1864 11.6205Z" fill="#695143"/>
<path d="M18.1131 17.2454C17.8023 17.4009 17.4817 17.5272 17.1417 17.6437C16.2892 17.9427 15.4004 18.1257 14.4992 18.1878C13.9746 18.1878 13.5277 18.1878 13.5277 18.1878L15.4707 19.6353L16.6073 20.4708C17.049 20.7824 17.4171 21.1869 17.6857 21.656C17.8427 21.9303 17.9418 22.2339 17.9769 22.548C18.012 22.8622 17.9823 23.1802 17.8897 23.4824C17.6631 24.1691 17.1742 24.7383 16.5296 25.0659C15.6331 25.4656 14.6322 25.5677 13.6734 25.3574L12.9837 25.2117C12.7208 25.7718 12.2802 26.2295 11.7304 26.5135C10.958 26.8858 10.0926 27.0208 9.24341 26.9021C8.39281 26.7653 7.56551 26.5103 6.78554 26.1443C6.69964 26.1027 6.62344 26.0436 6.56187 25.9709C6.50028 25.8981 6.45474 25.8129 6.42816 25.7214C6.40158 25.6297 6.3946 25.5334 6.40762 25.439C6.42067 25.3445 6.45345 25.2538 6.50381 25.1728C6.58713 25.0453 6.71195 24.9505 6.8571 24.9045C7.00228 24.8585 7.15887 24.864 7.30044 24.9202C7.96028 25.2383 8.66449 25.4545 9.38914 25.5614C9.96875 25.6492 10.5613 25.5717 11.099 25.3379C11.4209 25.1713 11.6649 24.8854 11.779 24.5413C11.8191 24.4107 11.8311 24.2731 11.8144 24.1375C11.7976 24.0019 11.7525 23.8714 11.6818 23.7544C11.5596 23.5357 11.3944 23.344 11.1961 23.191L7.46558 20.4125C7.17625 20.1975 6.8175 20.0974 6.45864 20.1314C6.09978 20.1655 5.76629 20.3314 5.52261 20.5971L5.42547 20.7039L0.762303 27.0379C0.592533 27.2689 0.500666 27.5481 0.5 27.8347C0.50389 28.0196 0.54654 28.2015 0.625193 28.3689C0.703846 28.5361 0.816749 28.6851 0.956601 28.8061C3.0769 30.5242 5.30273 32.1076 7.62104 33.5469C7.79591 33.6637 8.32051 33.9551 8.35937 33.9841C9.69506 34.6913 11.1912 35.0398 12.7018 34.9961C14.2125 34.9526 15.686 34.518 16.9787 33.7352C18.2714 32.9524 19.3391 31.8478 20.0776 30.5295C20.8162 29.2109 21.2004 27.7235 21.1928 26.2124C21.1878 24.9667 20.9231 23.7358 20.4156 22.5983C20.1533 22.0446 18.1229 17.2454 18.1131 17.2454Z" fill="#695143"/>
<path d="M11.7401 0.166645C11.6278 0.171634 11.5176 0.198723 11.4158 0.246361C11.314 0.294001 11.2226 0.361256 11.1468 0.444273C11.0709 0.527293 11.0123 0.624446 10.9741 0.730173C10.9359 0.835897 10.9189 0.948121 10.9241 1.06042C10.9241 1.85704 11.031 3.45027 11.0601 4.2469C11.0718 4.42509 11.1485 4.59279 11.2756 4.71814C11.4028 4.84351 11.5716 4.91782 11.7499 4.92694C11.939 4.9349 12.1236 4.86793 12.2636 4.74063C12.4037 4.6133 12.4879 4.4359 12.4979 4.2469C12.4979 3.45027 12.6436 1.77933 12.6339 0.982696C12.6302 0.869971 12.604 0.759124 12.5568 0.65669C12.5096 0.554253 12.4424 0.462303 12.3591 0.386252C12.2758 0.310204 12.1781 0.251595 12.0718 0.213879C11.9655 0.176161 11.8528 0.160104 11.7401 0.166645Z" fill="#695143"/>
<path d="M18.9583 2.42044C18.7659 2.29971 18.5337 2.25955 18.312 2.30865C18.0902 2.35772 17.8966 2.49211 17.7731 2.68274L16.0439 5.36408C15.9437 5.52014 15.9076 5.70893 15.9434 5.89092C15.9791 6.07293 5.10712 15.3456 5.25889 15.4523C5.41069 15.5589 16.5745 6.49117 16.7578 6.46303C16.9411 6.43493 17.1065 6.33703 17.2194 6.18984C17.7051 5.55835 18.7446 4.24685 19.1624 3.59595C19.2272 3.50574 19.2734 3.40352 19.2983 3.29525C19.3231 3.18696 19.3262 3.07482 19.3072 2.96535C19.2882 2.8559 19.2475 2.75133 19.1876 2.65777C19.1277 2.5642 19.0498 2.48351 18.9583 2.42044Z" fill="#695143"/>
<path d="M23.5729 8.39518C23.483 8.18844 23.3158 8.02499 23.1072 7.93969C22.8984 7.85439 22.6647 7.854 22.4557 7.93858L19.5412 9.16265C19.3747 9.23197 19.2403 9.36133 19.1648 9.52509C19.0892 9.68883 19.0779 9.87504 19.1332 10.0467C19.1608 10.1363 19.206 10.2195 19.266 10.2915C19.326 10.3635 19.3997 10.423 19.4828 10.4663C19.5659 10.5097 19.6568 10.5361 19.7502 10.5442C19.8436 10.5522 19.9377 10.5416 20.027 10.513C20.7847 10.2702 22.3877 9.80385 23.1357 9.54155C23.2427 9.4986 23.3395 9.434 23.4203 9.35181C23.501 9.26962 23.5639 9.17162 23.605 9.06396C23.646 8.9563 23.6644 8.84129 23.6589 8.72622C23.6533 8.61113 23.6241 8.49841 23.5729 8.39518Z" fill="#695143"/>
</svg>
