<svg width="136" height="39" viewBox="0 0 136 39" fill="none" xmlns="http://www.w3.org/2000/svg">
<g clip-path="url(#clip0_1_1107)">
<path d="M45.0526 10.0072C43.2233 8.79782 41.0662 8.18054 38.874 8.2391H31.2768V31.6131H35.9887V23.1418H38.6214C40.8415 23.1748 43.0205 22.542 44.8778 21.3251C45.7928 20.7054 46.5287 19.8558 47.0112 18.8615C47.494 17.8673 47.7062 16.7636 47.6271 15.6613C47.6271 13.0706 46.7689 11.186 45.0526 10.0072ZM41.5553 18.3717C40.7772 18.9848 39.805 19.2985 38.8155 19.2558H35.9887V12.1639H38.7477C39.7921 12.0987 40.8257 12.4088 41.6621 13.0382C42.0299 13.3957 42.3141 13.8303 42.494 14.3107C42.6735 14.7912 42.7445 15.3055 42.7015 15.8167C42.6986 16.2989 42.5952 16.7751 42.3977 17.2151C42.2002 17.655 41.9134 18.0489 41.5553 18.3717Z" fill="#6E39B7"/>
<path d="M52.4457 17.886L51.0174 15.739H48.6278V31.6131H53.3393V21.7428C54.0829 21.0647 54.9414 20.5251 55.875 20.1496C56.6516 19.8448 57.479 19.6898 58.3135 19.693V15.739C57.084 15.6875 55.859 15.9132 54.7286 16.3996C53.9083 16.7972 53.141 17.2966 52.4457 17.886Z" fill="#6E39B7"/>
<path d="M65.3082 15.7681H60.5964V31.6228H65.3082V15.7681Z" fill="#6E39B7"/>
<path d="M62.9378 8.21969C62.5958 8.21331 62.2562 8.27925 61.9416 8.4132C61.6268 8.54712 61.3439 8.74603 61.1113 8.99689C60.6256 9.5028 60.3604 10.1804 60.373 10.8816C60.3562 11.2388 60.4128 11.5956 60.5399 11.9299C60.6668 12.2642 60.8613 12.5687 61.1113 12.8246C61.3444 13.0741 61.6276 13.2716 61.9424 13.4038C62.2572 13.5361 62.5963 13.6003 62.9378 13.592C63.2861 13.5987 63.632 13.5341 63.9545 13.4021C64.277 13.2701 64.5691 13.0735 64.8127 12.8246C65.0735 12.575 65.2779 12.2725 65.4121 11.9373C65.546 11.6022 65.6066 11.2422 65.5898 10.8816C65.5898 10.1747 65.3098 9.49663 64.8109 8.99589C64.312 8.49515 63.6349 8.21254 62.928 8.20996L62.9378 8.21969Z" fill="#6E39B7"/>
<path d="M77.8307 15.1755C76.7726 15.19 75.7272 15.4076 74.7511 15.8167C73.7876 16.173 72.8959 16.6995 72.1183 17.3711L70.8651 15.739H68.4266V31.6131H73.1482V20.5382C73.6842 20.1581 74.2569 19.8326 74.8578 19.5667C75.3976 19.3158 75.9827 19.177 76.5775 19.1586C76.9111 19.1408 77.2446 19.1939 77.556 19.3144C77.8674 19.435 78.1498 19.6203 78.3845 19.8581C78.8488 20.422 79.0848 21.1397 79.0449 21.8691V31.5841H83.7568V21.7137C83.8111 20.0572 83.3346 18.4267 82.3967 17.0602C81.4834 15.807 79.9681 15.1755 77.8307 15.1755Z" fill="#6E39B7"/>
<path d="M104.226 15.7681H99.5143V31.6228H104.226V15.7681Z" fill="#6E39B7"/>
<path d="M113.708 15.739V14.855C113.674 14.1862 113.85 13.5235 114.213 12.9606C114.402 12.7168 114.648 12.5236 114.929 12.3982C115.21 12.2727 115.518 12.2189 115.826 12.2416C116.121 12.246 116.415 12.2884 116.7 12.3679C117.032 12.465 117.356 12.5851 117.672 12.7274L119.022 9.35631C118.555 8.99015 118.02 8.71947 117.448 8.55968C116.823 8.34155 116.167 8.22669 115.505 8.21968C113.783 8.14189 112.094 8.7062 110.764 9.80321C110.144 10.3617 109.657 11.0523 109.339 11.824C109.022 12.5958 108.881 13.429 108.928 14.2624V15.739H106.46V19.8387H108.928V31.6131H113.65V19.8679H118.05L116.729 15.739H113.708Z" fill="#6E39B7"/>
<path d="M129.912 15.739L126.648 25.1625C126.094 23.5887 125.531 22.0246 124.948 20.4507C124.365 18.8769 123.802 17.3128 123.219 15.739H118.235L123.588 29.4272C123.928 30.2921 123.928 31.2537 123.588 32.1183C123.254 32.8592 122.669 33.458 121.936 33.8087C121.161 34.2377 120.36 34.6174 119.537 34.9454L121.169 38.8314C122.631 38.457 124.005 37.7967 125.21 36.8884C126.395 36.0602 127.319 34.9108 127.872 33.5756L134.789 15.739H129.912Z" fill="#6E39B7"/>
<path d="M101.846 8.22936C101.5 8.22271 101.157 8.2894 100.839 8.42503C100.52 8.56066 100.235 8.76216 100 9.01626C99.7558 9.26261 99.5639 9.55557 99.4355 9.8777C99.3068 10.1998 99.2446 10.5445 99.252 10.8913C99.2435 11.2381 99.3052 11.5832 99.4339 11.9054C99.5623 12.2277 99.7551 12.5206 100 12.7662C100.239 13.0131 100.526 13.2079 100.844 13.3383C101.161 13.4688 101.503 13.532 101.846 13.524C102.204 13.5344 102.561 13.4727 102.894 13.3425C103.228 13.2124 103.532 13.0164 103.789 12.7662C104.041 12.5233 104.241 12.2321 104.379 11.91C104.515 11.5878 104.586 11.2413 104.586 10.8913C104.586 10.5412 104.515 10.1947 104.379 9.87253C104.241 9.55038 104.041 9.25915 103.789 9.01626C103.537 8.75857 103.234 8.55568 102.899 8.42028C102.565 8.28489 102.206 8.21989 101.846 8.22936Z" fill="#6E39B7"/>
<path d="M95.3467 27.397C95.0585 27.4758 94.7614 27.5183 94.4626 27.5233C94.1565 27.5467 93.8496 27.4935 93.5696 27.368C93.2896 27.2422 93.0454 27.0484 92.8595 26.8042C92.4935 26.2424 92.3134 25.5797 92.3448 24.9099V20.0524H96.5707L95.2107 15.9721H92.3448V10.8815H87.633V15.739H85.1656V19.8387H87.633V25.5413C87.5848 26.3739 87.7237 27.2066 88.0396 27.9784C88.3557 28.7501 88.8409 29.4412 89.4595 30.0005C90.7889 31.0976 92.4785 31.6619 94.2003 31.5841C94.8618 31.5751 95.5179 31.4604 96.1433 31.2439C96.7112 31.082 97.2425 30.8115 97.7074 30.4474L96.3666 27.0471C96.0349 27.1868 95.6942 27.3036 95.3467 27.397Z" fill="#6E39B7"/>
<path d="M6.72724 12.6205C6.97014 11.309 7.13527 10.5124 7.22271 10.1043C7.75704 7.33558 7.22271 5.44117 5.83347 5.1886C5.08544 5.05258 4.58027 5.50918 4.24997 6.79154C3.55047 9.45344 1.47149 17.4294 1.47149 17.4294L3.9585 14.0875C4.28277 13.6534 4.69929 13.2966 5.17809 13.0429C5.65687 12.7893 6.18598 12.645 6.72724 12.6205Z" fill="#6E39B7"/>
<path d="M4.94941 16.3705C5.21277 16.0161 5.55573 15.7287 5.9506 15.5312C6.34548 15.3338 6.78122 15.2319 7.22271 15.2338C7.72952 15.2315 8.22712 15.3694 8.66052 15.6321C8.74795 15.6321 10.6035 17.0311 11.7207 17.8665H13.858C15.173 17.865 16.4698 17.5591 17.6468 16.9728C18.17 16.6879 18.6013 16.26 18.8903 15.739C19.0253 15.4329 19.0493 15.0894 18.9583 14.7675C18.9129 14.6392 18.8409 14.5218 18.7472 14.4231C18.6535 14.3244 18.5401 14.2464 18.4143 14.1943C18.1091 14.0584 17.7765 13.9952 17.4428 14.0097H6.75638C6.4149 14.0201 6.08017 14.1077 5.77734 14.2658C5.47449 14.424 5.21137 14.6486 5.00771 14.9229L0.713716 20.7616C0.646946 20.8846 0.59478 21.0151 0.558278 21.1502C0.52056 21.3167 0.51837 21.4893 0.551849 21.6566C0.585328 21.824 0.653725 21.9825 0.752576 22.1217L4.94941 16.3705Z" fill="#6E39B7"/>
<path d="M4.32767 20.9171C4.5475 20.6188 4.82398 20.3669 5.14131 20.1757C5.45861 19.9845 5.81054 19.8577 6.17688 19.8027C6.54325 19.7476 6.91688 19.7654 7.27639 19.8549C7.63588 19.9444 7.97418 20.104 8.27194 20.3245L11.8373 22.9475C12.2807 23.2531 12.6493 23.6549 12.9157 24.123C13.0399 24.3535 13.1252 24.603 13.1682 24.8613C13.5138 24.974 13.868 25.0585 14.2272 25.1139C14.8068 25.2016 15.3994 25.1242 15.937 24.8905C16.2619 24.7202 16.5089 24.4315 16.6268 24.0841C16.6654 23.9549 16.6767 23.8191 16.66 23.6853C16.6433 23.5515 16.5989 23.4226 16.5296 23.3069C16.3599 23.0165 16.1276 22.7676 15.8496 22.5783L8.07764 16.8757L7.94164 16.7882C7.71546 16.6535 7.45685 16.5829 7.19358 16.5842C6.99669 16.5818 6.80136 16.6192 6.61935 16.6944C6.43736 16.7695 6.27246 16.8807 6.13467 17.0214L6.00837 17.1768L0.674879 24.4824C0.553584 24.6845 0.495268 24.9181 0.507381 25.1534C0.519494 25.3888 0.601486 25.6151 0.742884 25.8037L4.32767 20.9171Z" fill="#6E39B7"/>
<path d="M11.1864 12.6205H15.733C15.6385 12.4102 15.5315 12.2058 15.4124 12.0084C14.9172 11.1692 14.2945 10.4121 13.5666 9.76428C13.2568 9.4434 12.8574 9.22349 12.4205 9.13334C11.9837 9.04322 11.5299 9.08704 11.1184 9.25912C10.7855 9.46438 10.5463 9.79184 10.4518 10.1713C10.3574 10.5508 10.4154 10.9522 10.6132 11.2895L11.1864 12.6205Z" fill="#6E39B7"/>
<path d="M18.1131 18.2454C17.8023 18.4009 17.4817 18.5272 17.1417 18.6437C16.2892 18.9427 15.4004 19.1257 14.4992 19.1878C13.9746 19.1878 13.5277 19.1878 13.5277 19.1878L15.4707 20.6353L16.6073 21.4708C17.049 21.7824 17.4171 22.1869 17.6857 22.656C17.8427 22.9303 17.9418 23.2339 17.9769 23.548C18.012 23.8622 17.9823 24.1802 17.8897 24.4824C17.6631 25.1691 17.1742 25.7383 16.5296 26.0659C15.6331 26.4656 14.6322 26.5677 13.6734 26.3574L12.9837 26.2117C12.7208 26.7718 12.2802 27.2295 11.7304 27.5135C10.958 27.8858 10.0926 28.0208 9.24341 27.9021C8.39281 27.7653 7.56551 27.5103 6.78554 27.1443C6.69964 27.1027 6.62344 27.0436 6.56187 26.9709C6.50028 26.8981 6.45474 26.8129 6.42816 26.7214C6.40158 26.6297 6.3946 26.5334 6.40762 26.439C6.42067 26.3445 6.45345 26.2538 6.50381 26.1728C6.58713 26.0453 6.71195 25.9505 6.8571 25.9045C7.00228 25.8585 7.15887 25.864 7.30044 25.9202C7.96028 26.2383 8.66449 26.4545 9.38914 26.5614C9.96875 26.6492 10.5613 26.5717 11.099 26.3379C11.4209 26.1713 11.6649 25.8854 11.779 25.5413C11.8191 25.4107 11.8311 25.2731 11.8144 25.1375C11.7976 25.0019 11.7525 24.8714 11.6818 24.7544C11.5596 24.5357 11.3944 24.344 11.1961 24.191L7.46558 21.4125C7.17625 21.1975 6.8175 21.0974 6.45864 21.1314C6.09978 21.1655 5.76629 21.3314 5.52261 21.5971L5.42547 21.7039L0.762303 28.0379C0.592533 28.2689 0.500666 28.5481 0.5 28.8347C0.50389 29.0196 0.54654 29.2015 0.625193 29.3689C0.703846 29.5361 0.816749 29.6851 0.956601 29.8061C3.0769 31.5242 5.30273 33.1076 7.62104 34.5469C7.79591 34.6637 8.32051 34.9551 8.35937 34.9841C9.69506 35.6913 11.1912 36.0398 12.7018 35.9961C14.2125 35.9526 15.686 35.518 16.9787 34.7352C18.2714 33.9524 19.3391 32.8478 20.0776 31.5295C20.8162 30.2109 21.2004 28.7235 21.1928 27.2124C21.1878 25.9667 20.9231 24.7358 20.4156 23.5983C20.1533 23.0446 18.1229 18.2454 18.1131 18.2454Z" fill="#6E39B7"/>
<path d="M11.7401 1.16665C11.6278 1.17163 11.5176 1.19872 11.4158 1.24636C11.314 1.294 11.2226 1.36126 11.1468 1.44427C11.0709 1.52729 11.0123 1.62445 10.9741 1.73017C10.9359 1.8359 10.9189 1.94812 10.9241 2.06042C10.9241 2.85704 11.031 4.45027 11.0601 5.2469C11.0718 5.42509 11.1485 5.59279 11.2756 5.71814C11.4028 5.84351 11.5716 5.91782 11.7499 5.92694C11.939 5.9349 12.1236 5.86793 12.2636 5.74063C12.4037 5.6133 12.4879 5.4359 12.4979 5.2469C12.4979 4.45027 12.6436 2.77933 12.6339 1.9827C12.6302 1.86997 12.604 1.75912 12.5568 1.65669C12.5096 1.55425 12.4424 1.4623 12.3591 1.38625C12.2758 1.3102 12.1781 1.25159 12.0718 1.21388C11.9655 1.17616 11.8528 1.1601 11.7401 1.16665Z" fill="#6E39B7"/>
<path d="M18.9583 3.42044C18.7659 3.29971 18.5337 3.25955 18.312 3.30865C18.0902 3.35772 17.8966 3.49211 17.7731 3.68274L16.0439 6.36408C15.9437 6.52014 15.9076 6.70893 15.9434 6.89092C15.9791 7.07293 16.0838 7.23409 16.2356 7.34072C16.3874 7.44732 16.5745 7.49117 16.7578 7.46303C16.9411 7.43493 17.1065 7.33703 17.2194 7.18984C17.7051 6.55835 18.7446 5.24685 19.1624 4.59595C19.2272 4.50574 19.2734 4.40352 19.2983 4.29525C19.3231 4.18696 19.3262 4.07482 19.3072 3.96535C19.2882 3.8559 19.2475 3.75133 19.1876 3.65777C19.1277 3.5642 19.0498 3.48351 18.9583 3.42044Z" fill="#6E39B7"/>
<path d="M23.5729 9.39518C23.483 9.18844 23.3158 9.02499 23.1072 8.93969C22.8984 8.85439 22.6647 8.854 22.4557 8.93858L19.5412 10.1627C19.3747 10.232 19.2403 10.3613 19.1648 10.5251C19.0892 10.6888 19.0779 10.875 19.1332 11.0467C19.1608 11.1363 19.206 11.2195 19.266 11.2915C19.326 11.3635 19.3997 11.423 19.4828 11.4663C19.5659 11.5097 19.6568 11.5361 19.7502 11.5442C19.8436 11.5522 19.9377 11.5416 20.027 11.513C20.7847 11.2702 22.3877 10.8038 23.1357 10.5415C23.2427 10.4986 23.3395 10.434 23.4203 10.3518C23.501 10.2696 23.5639 10.1716 23.605 10.064C23.646 9.9563 23.6644 9.84129 23.6589 9.72622C23.6533 9.61113 23.6241 9.49841 23.5729 9.39518Z" fill="#6E39B7"/>
</g>
<defs>
<clipPath id="clip0_1_1107">
<rect width="135" height="38.7598" fill="white" transform="translate(0.5 0.120117)"/>
</clipPath>
</defs>
</svg>
