<svg width="121" height="121" viewBox="0 0 121 121" fill="none" xmlns="http://www.w3.org/2000/svg">
<g clip-path="url(#clip0_1_212)">
<g clip-path="url(#clip1_1_212)">
<g clip-path="url(#clip2_1_212)">
<path d="M60.17 120.5C93.3071 120.5 120.17 93.6371 120.17 60.5C120.17 27.3629 93.3071 0.5 60.17 0.5C27.0329 0.5 0.170013 27.3629 0.170013 60.5C0.170013 93.6371 27.0329 120.5 60.17 120.5Z" fill="#C9C5D8"/>
<path d="M60.17 120.5C75.0753 120.52 89.4506 114.972 100.478 104.944C99.4941 103.352 98.1973 101.976 96.666 100.9C94.2282 99.1639 91.2941 98.2631 88.302 98.332C87.9152 96.7449 87.2473 95.2398 86.33 93.888C85.3949 92.5097 84.2251 91.3061 82.874 90.332C80.1168 88.3543 76.7254 87.4664 73.3527 87.8393C69.98 88.2123 66.8646 89.8197 64.606 92.352C62.4131 94.796 61.1512 97.9343 61.042 101.216C58.7908 101.269 56.5866 101.871 54.6218 102.972C52.657 104.072 50.9913 105.636 49.77 107.528C48.7377 107.371 47.6903 107.337 46.65 107.428L46.25 107.452L45.85 107.516L45.022 107.652C44.742 107.692 44.474 107.788 44.202 107.852C43.93 107.916 43.658 107.984 43.402 108.08C41.2774 108.798 39.3567 110.016 37.802 111.632C36.8254 112.671 36.0085 113.849 35.378 115.128C43.1624 118.672 51.6168 120.504 60.17 120.5ZM76.49 14.324C76.0128 14.4953 75.5197 14.6186 75.018 14.692C74.6103 14.7546 74.1985 14.7867 73.786 14.788C72.8643 14.7867 71.9497 14.6271 71.082 14.316C69.966 17.236 68.942 20.316 68.942 21.204C68.942 23.172 69.054 25.552 69.23 27.968C69.494 31.568 69.89 35.26 70.23 37.768C70.402 38.86 70.538 39.736 70.63 40.268C70.6646 40.4579 70.7127 40.6451 70.774 40.828H76.73C76.7963 40.6422 76.8458 40.4507 76.878 40.256C76.966 39.724 77.106 38.852 77.278 37.76C77.622 35.252 78.03 31.572 78.302 27.968C78.486 25.568 78.61 23.168 78.614 21.196C78.61 20.34 77.594 17.248 76.49 14.324Z" fill="white"/>
<path d="M70.23 37.768C69.89 35.26 69.494 31.576 69.23 27.968C65.306 31.204 63.37 40.1 64.626 44.076C65.59 47.136 68.898 43.332 70.766 40.828C70.7047 40.645 70.6566 40.4579 70.622 40.268C70.538 39.736 70.402 38.86 70.23 37.768ZM78.67 28.316C78.55 28.2 78.426 28.092 78.298 27.988C78.026 31.588 77.618 35.272 77.274 37.78C77.098 38.872 76.958 39.744 76.874 40.276C76.8418 40.4707 76.7923 40.6622 76.726 40.848C77.306 41.6362 77.9254 42.3945 78.582 43.12C80.274 44.956 82.146 46.264 82.838 44.092C84.058 40.24 82.318 31.812 78.67 28.316ZM73.806 8.43604C73.498 8.43604 72.246 11.292 71.094 14.316C71.9528 14.6239 72.8577 14.7835 73.77 14.788C74.1838 14.7867 74.597 14.7546 75.006 14.692C75.5064 14.6185 75.9981 14.4952 76.474 14.324C75.37 11.336 74.134 8.52004 73.806 8.43604ZM73.15 37.872C73.0873 38.9688 73.0967 40.0685 73.178 41.164L73.462 44.968C73.467 45.0381 73.4982 45.1037 73.5493 45.1519C73.6004 45.2 73.6678 45.2272 73.738 45.228L73.802 27.976H73.722L73.15 37.872ZM73.806 27.976L73.742 45.228C73.8129 45.2282 73.8813 45.2015 73.9333 45.1532C73.9852 45.105 74.017 45.0388 74.022 44.968L74.314 41.192C74.4014 40.0942 74.4147 38.9917 74.354 37.892L73.806 27.976Z" fill="#CE364F"/>
<path d="M19.914 104.992C24.9748 109.576 30.7808 113.262 37.082 115.892V89.492C32.0029 95.3297 26.2386 100.534 19.914 104.992ZM41.174 117.428C47.2996 119.467 53.714 120.504 60.17 120.5V54.1281C54.462 65.8401 48.23 76.6761 41.19 84.8281L41.174 117.428Z" fill="#ADA2E2"/>
<path d="M60.17 120.5C73.5835 120.52 86.6134 116.025 97.162 107.74C96.3343 106.94 95.3767 106.287 94.33 105.808C93.2519 105.315 92.093 105.022 90.91 104.944C90.614 104.944 90.318 104.912 90.026 104.916C89.7404 104.936 89.4534 104.925 89.17 104.884C88.6083 104.794 88.0801 104.558 87.638 104.2C87.4206 104.011 87.2174 103.807 87.03 103.588C86.8247 103.375 86.6127 103.171 86.394 102.976C85.9634 102.6 85.6462 102.111 85.478 101.564C85.326 101.028 85.278 100.416 85.106 99.86C84.725 98.4306 84.0529 97.0952 83.132 95.9375C82.2111 94.7799 81.0611 93.8247 79.754 93.132C77.6154 92.0265 75.1433 91.7515 72.814 92.36C70.4811 92.9834 68.4429 94.4098 67.058 96.388C66.3696 97.3634 65.8441 98.4441 65.502 99.588C65.41 99.872 65.358 100.168 65.282 100.456C65.246 100.608 65.218 100.74 65.186 100.856C65.1491 100.984 65.1037 101.11 65.05 101.232C64.8406 101.724 64.4968 102.147 64.058 102.452C63.9494 102.528 63.8358 102.596 63.718 102.656C63.662 102.688 63.598 102.712 63.538 102.74L63.334 102.832C63.058 102.948 62.79 103.088 62.534 103.232C62.0105 103.527 61.5128 103.865 61.046 104.244C60.1167 105.006 59.3205 105.917 58.69 106.94C58.3809 107.451 58.1134 107.986 57.89 108.54C57.7927 108.801 57.6777 109.055 57.546 109.3C57.4123 109.531 57.2482 109.744 57.058 109.932C56.6787 110.311 56.2029 110.58 55.682 110.708C55.4202 110.771 55.1512 110.799 54.882 110.792H53.994C51.6144 110.809 49.2674 111.347 47.118 112.368C44.9621 113.381 43.1532 115.007 41.918 117.044C41.822 117.212 41.73 117.388 41.642 117.564C47.6259 119.508 53.8783 120.499 60.17 120.5Z" fill="#E9E6F7"/>
<path d="M61.454 38.1281C59.4549 40.8681 57.0087 43.2521 54.218 45.1801L57.018 45.2121C46.722 66.9201 32.73 86.1001 12.67 97.1561C14.0012 98.8797 15.4246 100.53 16.934 102.1C35.854 88.5681 50.642 67.7001 59.618 46.3401L61.454 48.2361C60.9656 44.8844 60.9656 41.4797 61.454 38.1281Z" fill="#203741"/>
<path d="M72.654 46.468C72.822 76.868 72.614 108.836 66.462 120.172C71.2484 119.673 75.9571 118.599 80.486 116.972C74.838 103.664 75.174 74.692 75.174 46.468H72.654Z" fill="#E8425A"/>
<path d="M69.174 119.82L69.878 119.712L70.922 119.532L71.51 119.424C71.934 119.344 72.354 119.256 72.774 119.164L73.126 119.092C75.2262 118.631 77.2999 118.057 79.338 117.372C83.2805 116.047 87.0732 114.312 90.654 112.196C90.4166 110.907 89.7666 109.731 88.802 108.844C87.6052 107.759 86.0838 107.1 84.474 106.968C82.8546 106.82 81.2314 107.208 79.854 108.072C78.5083 108.909 77.5326 110.228 77.126 111.76H77.098C75.35 110.844 72.942 110.812 70.698 111.868C67.566 113.34 65.854 116.412 66.586 119.004C65.8476 119.264 65.157 119.644 64.542 120.128C64.442 120.208 64.35 120.292 64.258 120.376C65.202 120.312 66.142 120.22 67.058 120.112L67.458 120.064L68.21 119.968L69.174 119.82Z" fill="#ADA2E2"/>
</g>
</g>
</g>
<defs>
<clipPath id="clip0_1_212">
<rect width="120" height="120" fill="white" transform="translate(0.170013 0.5)"/>
</clipPath>
<clipPath id="clip1_1_212">
<rect width="120" height="120" fill="white" transform="translate(0.170013 0.5)"/>
</clipPath>
<clipPath id="clip2_1_212">
<rect width="120" height="120" fill="white" transform="translate(0.170013 0.5)"/>
</clipPath>
</defs>
</svg>
